/* XPM */
static char *_f489be46b3e444db1e81577f07b9a9fdoIHzzrOoZuww6Lz[] = {
/* columns rows colors chars-per-pixel */
"64 64 2 1 ",
"  c #E6B37A",
". c #F2F3A6",
/* pixels */
"........                                                        ",
"........                                                        ",
"........                                                        ",
"........                                                        ",
"....                ....                        ................",
"....                ....                        ................",
"....                ....                        ................",
"....                ....                        ................",
"                                            ........            ",
"                                            ........            ",
"                                            ........            ",
"                                            ........            ",
"                ....                    ........                ",
"                ....                    ........                ",
"                ....                    ........                ",
"                ....                    ........                ",
"................                    ............            ....",
"................                    ............            ....",
"................                    ............            ....",
"................                    ............            ....",
"........                            ............        ........",
"........                            ............        ........",
"........                            ............        ........",
"........                            ............        ........",
"                                    ............        ........",
"                                    ............        ........",
"                                    ............        ........",
"                                    ............        ........",
"                                    ............        ........",
"                                    ............        ........",
"                                    ............        ........",
"                                    ............        ........",
"                                ............            ........",
"                                ............            ........",
"                                ............            ........",
"                                ............            ........",
"            ....    ....................                ....    ",
"            ....    ....................                ....    ",
"            ....    ....................                ....    ",
"            ....    ....................                ....    ",
"        ....                                                ....",
"        ....                                                ....",
"        ....                                                ....",
"        ....                                                ....",
"    ....                                        ............    ",
"    ....                                        ............    ",
"    ....                                        ............    ",
"    ....                                        ............    ",
"    ........                                    ........        ",
"    ........                                    ........        ",
"    ........                                    ........        ",
"    ........                                    ........        ",
"    ........            ........        ........                ",
"    ........            ........        ........                ",
"    ........            ........        ........                ",
"    ........            ........        ........                ",
"    ........        ............    ........                    ",
"    ........        ............    ........                    ",
"    ........        ............    ........                    ",
"    ........        ............    ........                    ",
"    ........................                                    ",
"    ........................                                    ",
"    ........................                                    ",
"    ........................                                    "
};
