/* XPM */
static char *e33afdc9df1d4089bf990d7d86c045d3[] = {
/* columns rows colors chars-per-pixel */
"64 64 23 1 ",
"  c #150D37",
". c #160D37",
"X c #160E37",
"o c #170F37",
"O c #170E38",
"+ c #47266D",
"@ c #863874",
"# c #9F5856",
"$ c #9F8354",
"% c #E6B37A",
"& c #E6B47B",
"* c #E5B47C",
"= c #E5B57C",
"- c #E6B47C",
"; c #E5B67E",
": c #E4B780",
"> c #E3BA83",
", c #E4B880",
"< c #E2BE88",
"1 c #E1C18D",
"2 c #D6DDB3",
"3 c #F2F3A6",
"4 c white",
/* pixels */
"33333333%%%%%%%%%%%%%%%%%%%%%%%%%%%%%%==&==%%%%%%%%%%%%%%%%%%%%%",
"33333333%%%%%%%%%%%%%%%%%%%%%%%%%%%%%%%%%%22%%%%%%%%%%%%%%%%%%%%",
"33333333%%%%%%%%%%%%%%%%%%%%%%%%%%%%%%%%%%22%%%%%%%%%%%%%%%%%%%%",
"33333333%%%%%%%%%%%%%%%%%%%%%%%%%%%%%%%%%%22222>%%%%%%%%%%%%%%%%",
"3333%%%%%%%%%%%%%%%%3333%%%%%%%%%%%%%%%%%%22222,3333333333333333",
"3333%%%%%%%%%%%%%%%%3333%%%%%%%%%%%%%%%%%%22222:3333333333333333",
"3333%%%%%%%%%%%%%                         22222<3333333333333333",
"3333%%%%%%%%%%%%%             2222222222222222213333333333333333",
"%%%%%%%%%%%%%%%%%             2222222222222222223333%%%%%%%%%%%%",
"%%%%%%%%%%%%%%%%%             2222222222222222223333%%%%%%%%%%%%",
"%%%%%%%%%%%%%    O O          222222222222222222   3%%%%%%%%%%%%",
"%%%%%%%%%%%%%             2222222222222222222222   3%%%%%%%%%%%%",
"%%%%%%%%%%%%%   ####$$$$$$2222222222222222222222   %%%%%%%%%%%%%",
"%%%%%%%%%%%%%   $$$$######222222222222222222$$$$   %%%%%%%%%%%%%",
"%%%%%%%%%%%%%   $$$$######222222222222222222$$$$   %%%%%%%%%%%%%",
"%%%%%%%%%%%%%   $$$$##2222222222222222222222$$$$   %%%%%%%%%%%%%",
"3333333333333   $$$$##2222222222222222222222$$$$   %%%%%%%%%3333",
"3333333333333   $$$$$$222222222222222222####$$$$   %%%%%%%%%3333",
"3333333333333   $$$$$$222222222222222222####$$$$   %%%%%%%%%3333",
"3333333333333   $$$$$$222222222222222222####$$$$   %%%%%%%%%3333",
"33333333%%%%%   $$$$$$222222222222222222####$$$$   %%%%%33333333",
"33333333%%%%%   $$$$$$222222222222222222####$$$$   %%%%%33333333",
"33333333%       $$$$$$222222222222222222####$$$$       %33333333",
"33333333%       $$$$$$2222222222222222222222$$$$       %33333333",
"%%%%%%%%%       $$$$$$2222222222222222222222$$$$       %33333333",
"%%%%%%%%%###    $$$$$$2222222222222222222222$$$$    $$$%33333333",
"%%%%%   ####    $$$$$$2222222444444442222222$$$$    $$$$   33333",
"%%%%%   ####    $$$$$$2222222444444442222222$$$$    $$$$   33333",
"%%%%%   ####    $$$$$$2222222444444442222222$$$$    $$$$   33333",
"%%%%%#######    $$$$$$$$@@22244444444222####$$$$    $$$$$$$33333",
"    ########    $$$$$$$$@@22244444444222####$$$$    $$$$$$$$    ",
"    ########    $$$$$$$$@@22244444444222####$$$$    $$$$$$$$    ",
"    ########    $$$$$$$$@@22244444444222####$$$$    $$$$$$$$    ",
"    ########    $$$$####$$$$$$444444$$$$####$$$$    $$$$$$$$    ",
"    ########    $$$$####$$$$$$444444$$$$####$$$$    $$$$$$$$    ",
"    ########    $$$$####$$$$$$444444$$$$####$$$$    $$$$$$$$    ",
"    ########    $$$$####$$$$$$444444$$$$####$$$$    $$$$$$$$    ",
"    ########    ####$$$$$$$$$$444444$$$$$$$$####    $$$$$$$$    ",
"    ########    ####$$$$$$$$$$$$$$$$$$$$$$$$####    $$$$$$$$    ",
"    ########    ####$$$$$$$$$$$$$$$$$$$$$$$$####    $$$$$$$$    ",
"    ########    ####$$$$$$$$$$$$$$$$$$$$$$$$####    $$$$$$$$    ",
"    ########    @@@@@@@@@@@@@@@@@@@@@@@@@@@@@@@@    $$$$$$$$    ",
"    ########    @@@@@@@@@@@@@@@@@@@@@@@@@@@@@@@@    $$$$$$$$    ",
"    ########    @@@@@@@@@@@@@@@@@@@@@@@@@@@@@@@@    $$$$$$$$    ",
"    ########    @@@@@@@@@@@@@@@@@@@@@@@@@@@@@@@@    $$$$$$$$    ",
"    ####@@@@    @@@@@@@@@@@@@@@@@@@@@@@@@@@@@@@@    @@@@$$$$    ",
"    ####@@@@    @@@@@@@@@@@@@@@@@@@@@@@@@@@@@@@@    @@@@$$$$    ",
"    ####@@@@    @@@@@@@@@@@@@@@@@@@@@@@@@@@@@@@@    @@@@$$$$    ",
"    ####@@@@    @@@@@@@@@@@@@@@@@@@@@@@@@@@@@@@@    @@@@$$$$    ",
"    @@@@@@@@                                        @@@@@@@@    ",
"    @@@@@@@@                                        @@@@@@@@    ",
"    @@@@@@@@                                        @@@@@@@@    ",
"    @@@@@@@@                                        @@@@@@@@    ",
"    @@@@    ++++    ########################    ++++    @@@@    ",
"    @@@@    ++++    ########################    ++++    @@@@    ",
"    @@@@    ++++    ########################    ++++    @@@@    ",
"    @@@@    ++++    ########################    ++++    @@@@    ",
"        ++++++++    ########################    ++++++++        ",
"        ++++++++    ########################    ++++++++        ",
"        ++++++++    ########################    ++++++++        ",
"        ++++++++    ########################    ++++++++        ",
"                    @@@@@@@@@@@@@@@@@@@@@@@@                    ",
"                    @@@@@@@@@@@@@@@@@@@@@@@@                    ",
"                    @@@@@@@@@@@@@@@@@@@@@@@@                    "
};
