/* XPM */
static char *bd85a362b17f473aaa37f4cb7c06a660[] = {
/* columns rows colors chars-per-pixel */
"64 64 11 1 ",
"  c #394778",
". c #7A444A",
"X c #A05B53",
"o c #BF7958",
"O c #EEA160",
"+ c #E6B37A",
"@ c #3978A8",
"# c #28CCDF",
"$ c #F2F3A6",
"% c #8AEBF1",
"& c #DFF6F5",
/* pixels */
"$$$$$$$$++++++++++++++++++++++++++++++++++++++++++++++++++++++++",
"$$$$$$$$++++++++++++++++++++++++++++++++++++++++++++++++++++++++",
"$$$$$$$$++++++++++++++++++++++++++++++++++++++++++++++++++++++++",
"$$$$$$$$++++++++++++++++++++++++++++++++++++++++++++++++++++++++",
"$$$$++++++++++++++++$$$$++++++++++++++++++++++++$$$$$$$$$$$$$$$$",
"$$$$++++++++++++++++$$$$++++OOOOOOOO++++++++++++$$$$$$$$$$$$$$$$",
"$$$$++++++++++++++++$$$$++++OOOOOOOO++++++++++++$$$$$$$$$$$$$$$$",
"$$$$++++++++++++++++$$$$++OOOOOOOOOOoo++++++++++$$$$$$$$$$$$$$$$",
"++++++++++++++++++++++++++OOOOOOOOOOoo++++++$$$$$$$$++++++++++++",
"++++++++++++++++++++++++++ooOOOOoooo..++++++$$$$$$$$++++++++++++",
"++++++++++++++++++++++++++ooOOOOoooo..++++++$$$$$$$$++++++++++++",
"++++++++++++++++++++++++++ooooXXXX....++++++$$$$$$$$++++++++++++",
"++++++++++++++++$$$$++++++ooooXXXX....++$$$$$$$$++++++++++++++++",
"++++++++++++++++$$$$++++++XXooXX......++$$$$$$$$++++++++++++++++",
"++++++++++++++++$$$$++++++XXooXX......++$$$$$$$$++++++++++++++++",
"++++++++++++++++$$$$++++++XXXXXX......++$$$$$$$$++++++++++++++++",
"$$$$$$$$$$$$$$$$++++++++++XXXXXX......$$$$$$$$$$++++++++++++$$$$",
"$$$$$$$$$$$$$$$$++++++&&&&XXXX........&&&&$$$$$$++++++++++++$$$$",
"$$$$$$$$$$$$$$$$++++++&&&&XXXX........&&&&$$$$$$++++++++++++$$$$",
"$$$$$$$$$$$$$$$$&&&&&&++++&&XXXX....&&$$$$&&&&&&++++++++++++$$$$",
"$$$$$$$$++++++++&&&&&&++++&&XXXX....&&$$$$&&&&&&++++++++$$$$$$$$",
"$$$$$$$$++&&&&&&++++++++&&XX&&&&&&&&..&&$$$$$$$$&&&&&&++$$$$$$$$",
"$$$$$$$$++&&&&&&++++++++&&XX&&&&&&&&..&&$$$$$$$$&&&&&&++$$$$$$$$",
"$$$$$$&&&&++++++++++++++&&++XXXX....$$&&$$$$$$$$++++++&&&&$$$$$$",
"++++++&&&&++++++++++++++&&++XXXX....$$&&$$$$$$$$++++++&&&&$$$$$$",
"++++++&&++&&&&&&++++++++++&&++....++&&$$$$$$$$$$&&&&&&++&&$$$$$$",
"++++++&&++&&&&&&++++++++++&&++....++&&$$$$$$$$$$&&&&&&++&&$$$$$$",
"++++++&&++++++++&&&&&&&&++++++++++++$$$$&&&&&&&&++++++++&&$$$$$$",
"++++++&&++++++++&&&&&&&&++++++++++++$$$$&&&&&&&&++++++++&&$$$$$$",
"++++++&&++%%&&%%%%%%%%%%&&&&&&&&&&&&&&&&%%%%##########++&&$$$$$$",
"++++++&&++%%&&%%%%%%%%%%&&&&&&&&&&&&&&&&%%%%##########++&&$$$$$$",
"++++++&&++@@&&&&&&%%%%%%%%%%%%%%%%%%%%%%%%##########  ++&&$$$$$$",
"++++++&&++@@&&&&&&%%%%%%%%%%%%%%%%%%%%%%%%##########  ++&&$$$$$$",
"++++++&&++@@&&&&&&%%%%%%%%%%%%%%%%%%%%%%%%######  &&  ++&&$$$$$$",
"++++++&&++@@&&&&&&%%%%%%%%%%%%%%%%%%%%%%%%######  &&  ++&&$$$$$$",
"++++++&&++@@@@&&&&@@@@@@%%%%%%%%%%%%%%%%@@@@    &&&&  ++&&$$$$$$",
"++++++&&++@@@@&&&&@@@@@@%%%%%%%%%%%%%%%%@@@@    &&&&  ++&&$$++++",
"++++++&&++@@@@@@@@@@@@@@@@@@@@@@@@@@@@@@@@      &&&&  ++&&$$++++",
"++++++&&++@@@@@@@@@@@@@@@@@@@@@@@@@@@@@@@@      &&&&  ++&&$$++++",
"++++++&&++@@&&@@@@@@@@@@@@@@@@@@@@@@@@          &&&&  ++&&$$++++",
"++++++&&$$@@&&@@@@@@@@@@@@@@@@@@@@@@@@          &&&&  ++&&++$$$$",
"++++++&&$$@@&&&&&&@@@@@@@@@@@@@@                &&    ++&&++$$$$",
"++++++&&$$@@&&&&&&@@@@@@@@@@@@@@                &&    ++&&++$$$$",
"++++++&&$$@@@@@@&&@@@@@@@@                            ++&&++$$$$",
"++++$$&&++@@@@@@&&@@@@@@@@                            $$&&$$++++",
"++++$$&&++@@&&@@@@                                &&  $$&&$$++++",
"++++$$&&++@@&&@@@@                                &&  $$&&$$++++",
"++++$$&&++++&&&&&&&&                          &&&&$$$$$$&&$$++++",
"++++$$&&$$$$&&&&&&&&                          &&&&$$$$$$&&++++++",
"++++$$&&&&$$++++++&&&&&&&&&&            ++&&&&++$$$$$$&&&&++++++",
"++++$$&&&&$$++++++&&&&&&&&&&            ++&&&&++$$$$$$&&&&++++++",
"++++$$&&&&&&&&&&++++++++++&&&&++&&++&&++++++++++&&&&&&&&&&++++++",
"++++$$&&&&&&&&&&++++++++$$&&&&$$&&++&&++$$$$$$$$&&&&&&&&&&++++++",
"++++$$$$$$&&&&&&&&&&&&&&$$$$$$$$++++++++&&&&&&&&&&&&&&++++++++++",
"++++$$$$$$&&&&&&&&&&&&&&$$$$$$$$++++++++&&&&&&&&&&&&&&++++++++++",
"++++$$$$$$$$++++&&&&&&&&&&&&&&&&&&&&&&&&&&&&&&&&++++++++++++++++",
"++++$$$$$$$$++++&&&&&&&&&&&&&&&&&&&&&&&&&&&&&&&&++++++++++++++++",
"++++$$$$$$$$++++++++$$$$&&&&&&&&&&&&&&&&$$$$++++++++++++++++++++",
"++++$$$$$$$$++++++++$$$$&&&&&&&&&&&&&&&&$$$$++++++++++++++++++++",
"++++$$$$$$$$++++++++$$$$$$$$$$$$++++$$$$$$$$++++++++++++++++++++",
"++++$$$$$$$$$$$$$$$$$$$$$$$$++++++++++++++++++++++++++++++++++++",
"++++$$$$$$$$$$$$$$$$$$$$$$$$++++++++++++++++++++++++++++++++++++",
"++++$$$$$$$$$$$$$$$$$$$$$$$$++++++++++++++++++++++++++++++++++++",
"++++$$$$$$$$$$$$$$$$$$$$$$$$++++++++++++++++++++++++++++++++++++"
};
