/* XPM */
static char *_35ed4757cee4c379a7792776f527116i69yfoDHYsKsSZ0D[] = {
/* columns rows colors chars-per-pixel */
"64 64 195 2 ",
"   c #020202",
".  c #0C0202",
"X  c #0C0906",
"o  c #010C0C",
"O  c #0C0C09",
"+  c #130505",
"@  c #120A0A",
"#  c #180D0D",
"$  c #120906",
"%  c #15120C",
"&  c #18130D",
"*  c #041111",
"=  c #091313",
"-  c #0D1919",
";  c #131413",
":  c #1A1212",
">  c #191912",
",  c #131F1F",
"<  c #1D1D1D",
"1  c #220A08",
"2  c #360101",
"3  c #36130D",
"4  c #231D1D",
"5  c #142423",
"6  c #1B2323",
"7  c #0D3333",
"8  c #1C3535",
"9  c #232222",
"0  c #2C2323",
"q  c #262A2A",
"w  c #2A2D2D",
"e  c #2D2A27",
"r  c #342C2C",
"t  c #372928",
"y  c #34322F",
"u  c #253535",
"i  c #2D3333",
"p  c #2B3C3C",
"a  c #353535",
"s  c #3B3535",
"d  c #353A3A",
"f  c #3B3A3A",
"g  c #3A3A35",
"h  c #7D0202",
"j  c #641919",
"k  c #4C2B2B",
"l  c #412E2D",
"z  c #5C2121",
"x  c #532B2B",
"c  c #5B2A2A",
"v  c #562525",
"b  c #433636",
"n  c #4C3333",
"m  c #423C3C",
"M  c #493E3E",
"N  c #403933",
"B  c #553232",
"V  c #5C3232",
"C  c #573C39",
"Z  c #583C39",
"A  c #563835",
"S  c #632525",
"D  c #632E2E",
"F  c #6C2727",
"G  c #742B2B",
"H  c #732626",
"J  c #6D3331",
"K  c #663535",
"L  c #743A3A",
"P  c #3B433E",
"I  c #34433E",
"U  c #42413D",
"Y  c #64433D",
"T  c #2E4040",
"R  c #344444",
"E  c #3B4141",
"W  c #394C4B",
"Q  c #394946",
"!  c #434242",
"~  c #4B4644",
"^  c #4E4C44",
"/  c #474848",
"(  c #4B4B4B",
")  c #464C44",
"_  c #5B4141",
"`  c #504040",
"'  c #53504A",
"]  c #4E5151",
"[  c #545454",
"{  c #5B5B5B",
"}  c #585959",
"|  c #654D4D",
" . c #7A4343",
".. c #6D5555",
"X. c #605F5F",
"o. c #755D5C",
"O. c #636363",
"+. c #6F6E6C",
"@. c #6B6969",
"#. c #746D6B",
"$. c #697575",
"%. c #7E7070",
"&. c #7C7C7C",
"*. c #747676",
"=. c #840101",
"-. c #8D0101",
";. c #930000",
":. c #9A0000",
">. c #9F0909",
",. c #A50000",
"<. c #AD0101",
"1. c #B30000",
"2. c #BB0101",
"3. c #B50909",
"4. c #C10000",
"5. c #CA0000",
"6. c #C80000",
"7. c #CD0000",
"8. c #CE0404",
"9. c #CC0909",
"0. c #D60302",
"q. c #DC0202",
"w. c #DF0906",
"e. c #D80808",
"r. c #E50707",
"t. c #E30101",
"y. c #EE0505",
"u. c #EC0101",
"i. c #E90808",
"p. c #E00808",
"a. c #F30101",
"s. c #FD0101",
"d. c #F40A0A",
"f. c #FA0909",
"g. c #DB2525",
"h. c #ED2626",
"j. c #FF2525",
"k. c #F92626",
"l. c #F42525",
"z. c #834C4C",
"x. c #8B5353",
"c. c #855656",
"v. c #935C5C",
"b. c #9D5C5C",
"n. c #836464",
"m. c #886666",
"M. c #836A6A",
"N. c #9C6363",
"B. c #936D6D",
"V. c #867979",
"C. c #967D7D",
"Z. c #A06262",
"A. c #A66868",
"S. c #AE7676",
"D. c #DD7878",
"F. c #E37E7E",
"G. c #CEA06D",
"H. c #CEA06D",
"J. c #CFA370",
"K. c #D5A673",
"L. c #DAAA74",
"P. c #DCAB75",
"I. c #DFAE78",
"U. c #E5AB75",
"Y. c #E1A974",
"T. c #E6B37A",
"R. c #E5B27A",
"E. c #E6B37A",
"W. c #6F8181",
"Q. c #7E8484",
"!. c #838383",
"~. c #869292",
"^. c #979696",
"/. c #9A9D9D",
"(. c #969A9A",
"). c #AFA4A4",
"_. c #B0A6A6",
"`. c #CA8585",
"'. c #D08C8C",
"]. c #D49393",
"[. c #D19898",
"{. c #F18B8B",
"}. c #C5ACAC",
"|. c #D9DA95",
" X c #DFDF9B",
".X c #E7DC97",
"XX c #E6E79E",
"oX c #E5E69D",
"OX c #E6E79E",
"+X c #E7E89E",
"@X c #F3E79E",
"#X c #E9EAA0",
"$X c #F2F3A6",
"%X c #F1F2A5",
"&X c #F2F3A6",
/* pixels */
"$X$X$X$X$X$X$X$XT.T.T.T.T.T.T.T.T.T.T.T.T.T.T.T.T.T.T.T.T.T.T.T.T.T.T.T.T.T.T.T.T.T.T.T.T.T.T.T.T.T.T.T.T.T.T.T.T.T.T.T.T.T.T.T.",
"$X$X$X$X$X$X$X$XT.T.T.T.T.T.T.T.T.T.T.T.T.T.T.T.T.T.T.T.T.T.T.T.T.T.T.T.T.T.T.T.T.T.T.T.T.T.T.T.T.T.T.T.T.T.T.T.T.T.T.T.T.T.T.T.",
"$X$X$X$X$X$X$X$XT.T.T.T.T.T.T.T.T.T.T.T.T.T.T.T.T.T.T.T.T.T.T.T.T.T.T.T.T.T.T.T.T.T.T.T.T.T.T.T.T.T.T.T.T.T.T.T.T.T.T.T.T.T.T.T.",
"$X$X$X$X$X$X$X$XT.T.T.T.T.T.T.T.T.T.T.T.T.T.T.T.T.T.T.T.T.T.T.T.T.T.T.T.T.T.T.T.T.T.T.T.T.T.T.T.T.T.T.T.T.T.T.T.T.T.T.T.T.T.T.T.",
"$X$X$X$XT.T.T.T.T.T.T.T.T.T.T.T.T.T.T.T.$X$X$X$XT.T.T.T.T.T.T.T.T.T.T.T.T.T.T.T.T.T.T.T.T.T.T.T.$X$X$X$X$X$X$X$X$X$X$X$X$X$X$X$X",
"$X$X$X$XT.T.T.T.T.T.T.T.T.T.T.T.T.T.T.T.$X$X$X$XT.T.T.T.T.T.T.T.T.T.T.T.T.T.T.T.T.T.T.T.T.T.T.T.$X$X$X$X$X$X$X$X$X$X$X$X$X$X$X$X",
"$X$X$X$XT.T.T.T.T.T.T.T.T.T.T.T.T.T.T.T.$X$X> O X X X X X X X X X X X X X X X & T.T.T.T.T.T.T.T.$X$X$X$X$X$X$X$X$X$X$X$X$X$X$X$X",
"$X$X$X$XT.T.T.T.T.T.T.T.T.T.T.T.T.T.T.T.XX|.            . . . . . .             G.L.T.T.T.T.T.T.$X$X$X$X$X$X$X$X$X$X$X$X$X$X$X$X",
"T.T.T.T.T.T.T.T.T.T.T.T.T.T.T.T.T.T.T.T.& O [ { { [ o . <.9.q.p.l.g.  o [ X.{ [ X & T.T.$X$X$X$X$X$X$X$XT.T.T.T.T.T.T.T.T.T.T.T.",
"T.T.T.T.T.T.T.T.T.T.T.T.T.T.T.T.T.T.L.G.    } O.O.} = @ 3.9.d.f.j.k.1 = [ O.O.} O   G.L.$X$X$X$X$X$X$X$XT.T.T.T.T.T.T.T.T.T.T.T.",
"T.T.T.T.T.T.T.T.T.T.T.T.T.T.T.T.T.T.& X > 9 f f f f f a o + 3.e.f.f.j.h.$ o a f { [ X & $X$X$X$X$X$X$X$XT.T.T.T.T.T.T.T.T.T.T.T.",
"T.T.T.T.T.T.T.T.T.T.T.T.T.T.T.T.L.G.    < q a a a a f f * o >.3.0.q.j.h.$ o a f O.} O   |.XX$X$X$X$X$X$XT.T.T.T.T.T.T.T.T.T.T.T.",
"T.T.T.T.T.T.T.T.T.T.T.T.T.T.T.L.> O < 9 a f f f f f f f ( / : @ # # $ : / ( f f f f } [ % > +X$XT.T.T.T.T.T.T.T.T.T.T.T.T.T.T.T.",
"T.T.T.T.T.T.T.T.T.T.T.T.T.T.T.L.    < q f f f f a a a a ( / * o o o   o / ( a a w a O.{     XX$XT.T.T.T.T.T.T.T.T.T.T.T.T.T.T.T.",
"T.T.T.T.T.T.T.T.T.T.T.T.T.T.T.L.O   < 9 a f f f = o * * * * o o o o o o * * * * o = O.X.  O XX$XT.T.T.T.T.T.T.T.T.T.T.T.T.T.T.T.",
"T.T.T.T.T.T.T.T.T.T.T.T.T.T.T.L.O   < 9 a f f a @ X @ @ X @ # # # # # # @ $ @ @ . # [ [   O XX$XT.T.T.T.T.T.T.T.T.T.T.T.T.T.T.T.",
"$X$X$X$X$X$X$X$X$X$X$X$X$X$X$XXXX   < 9 f f = @ =.;.=.=.=.=.<.1.<.<.<.<.1.<.=.=.;.=.: *   O XX$XT.T.T.T.T.T.T.T.T.T.T.T.$X$X$X$X",
"$X$X$X$X$X$X$X$X$X$X$X$X$X$X$XXXX   < 9 f g o X ;.,.:.:.:.:.6.7.6.6.6.6.7.6.:.:.,.;.$     O XX$XT.T.T.T.T.T.T.T.T.T.T.T.$X$X$X$X",
"$X$X$X$X$X$X$X$X$X$X$X$X$X$X$XXXX   < 9 f f o X -.,.2.2.2.2.r.i.r.r.r.r.i.r.4.1.,.-.$     O +X$XT.T.T.T.T.T.T.T.T.T.T.T.$X$X$X$X",
"$X$X$X$X$X$X$X$X$X$X$X$X$X$X$XXXX   < 9 f f = @ h ;.2.2.2.2.r.i.r.r.r.r.i.r.4.1.;.h : *   O +X$XT.T.T.T.T.T.T.T.T.T.T.T.$X$X$X$X",
"$X$X$X$X$X$X$X$XT.T.T.T.T.T.T.L.X   < 9 a f f a o + ;.,.:.:.6.7.6.6.6.6.7.6.,.;.+ O [ [   O +X$XT.T.T.T.T.T.T.T.$X$X$X$X$X$X$X$X",
"$X$X$X$X$X$X$X$XT.T.T.T.T.T.T.L.X   < 9 a f f f * o h -.=.=.<.1.<.<.<.<.1.<.;.h o * O.X.  O XX$XT.T.T.T.T.T.T.T.$X$X$X$X$X$X$X$X",
"$X$X$X$X$X$X$X$XT.T.T.T.T.T.T.L.    < q f f f d p u @ X @ @ @ @ @ @ @ @ @ @ X @ w f { [   O +X$XT.T.T.T.T.T.T.T.$X$X$X$X$X$X$X$X",
"$X$X$X$X$X$X$X$XT.T.T.T.T.T.T.L.& O < 9 a f d f M b = o * * * * * * * * * * o = a f { [   O +X$XT.T.T.T.T.T.T.T.$X$X$X$X$X$X$X$X",
"T.T.T.T.T.T.T.T.T.T.T.T.T.T.T.T.L.G.X   < q p b y.y.s p a a / / / / / / / / s a a a { [   O XX$XT.T.T.T.T.T.T.T.$X$X$X$X$X$X$X$X",
"T.T.T.T.T.T.T.T.T.T.T.T.T.T.T.T.T.T.X   < 9 p b y.y.b T f f / / / / / / / / f f a a { [   O XX$XT.T.T.T.T.T.T.T.$X$X$X$X$X$X$X$X",
"T.T.T.T.T.T.T.T.T.T.T.T.T.T.T.T.T.L.    < q f f b b f d f f ; ; ; ; ; ; ; ; f f a a O.{     XX$XT.T.T.T.T.T.T.T.$X$X$X$X$X$X$X$X",
"T.T.T.T.T.T.T.T.T.T.T.T.T.T.T.T.T.L.& O < 9 a a p p d f f a ; ; ; ; ; ; ; ; a f a f } [ % > +X$XT.T.T.T.T.T.T.T.$X$X$X$X$X$X$X$X",
"T.T.T.T.T.T.T.T.T.T.T.T.T.T.T.T.T.T.L.G.        f ! f a ; > ( [ ( ( ( ( [ / ; ; [ [ O   |.XX$X$XT.T.T.T.T.T.T.T.$X$X$X$X$X$X$X$X",
"T.T.T.T.T.T.T.T.T.T.T.T.T.T.T.T.T.T.T.T.& X X X a f f a O ; ( } [ [ [ [ } [ ; ; [ ( O > $X$X$X$XT.T.T.T.T.T.T.T.$X$X$X$X$X$X$X$X",
"T.T.T.T.T.T.T.T.T.T.T.T.T.T.T.T.T.T.T.T.L.L.T.Y.X   f f ; ; a f f f d f [ ] ; O ; < |.XX$X$X$X$XT.T.T.T.T.T.T.T.$X$X$X$X$X$X$X$X",
"T.T.T.T.T.T.T.T.T.T.T.T.T.T.T.T.T.T.T.T.T.T.T.R.X   f f ; ; a f f f s f [ ( < ;   ; $X$X$X$X$X$XT.T.T.T.T.T.T.T.$X$X$X$X$X$X$X$X",
"T.T.T.T.T.T.T.T.T.T.T.T.T.T.T.T.T.T.T.T.T.T.' ( d p d d f f d d k x k k x x x k   O $X$XT.T.T.T.T.T.T.T.T.T.T.T.$X$X$X$X$X$X$X$X",
"T.T.T.T.T.T.T.T.T.T.T.T.T.T.T.T.T.T.T.T.I.K.d d m m s s f f d s S F S S S S G S . O |.XXT.T.T.T.T.T.T.T.I.I.I.I.$X$X$X$X$X$X$X$X",
"T.T.T.T.T.T.T.T.T.T.T.T.T.T.T.T.T.T.T.T.Y A     =.:.:.-.s d m B u.s.u.t.0.0.t.8.c t O > T.T.T.T.T.T.T.T.N y i g $X$X$X$X$X$X$X$X",
"T.T.T.T.T.T.I.I.I.I.I.I.I.I.I.I.T.T.I.K.J c     -.:.:.-.s d B G u.s.s.s.u.t.a.q.G c .   J.I.U.U.I.I.I.K.f f f s  X#X$X$X$X$X$X$X",
"T.T.T.T.T.T.Y Z Z C C C Z C U ) T.T.Q b a.a.s u B B s a u r a.a.z z a.s.a.u.q.0.t.7.v l I m w.w.r u e g ~./.].`.U I $X$XT.T.T.T.",
"T.T.T.T.I.K.D D D D D D D D m d I.I.p b s.s.M R D V E R p b s.s.n n q.a.a.a.q.0.u.t.H c i s t.t.b p a f /._.{.F.f 7 .X@XT.T.T.T.",
"T.T.T.T.Y J 0.u.u.a.a.a.s.s.x.o.+.+.@.+.N.A.$.@.u.a.%.W.&.&.S.S.!.&.x j u.s.s.a.t.q.u.0.x c t.f.[.}.(.^.'.D.s.s.i i s.s.T.T.T.T.",
"T.T.T.T.n D 0.u.a.a.a.s.s.s.x.o.} } O.O.M.M.$.#.a.s.%.W.&.&.C.C.Q.*.n v r.f.y.y.q.q.t.0.x c u.f.[.}.(.^.'.D.s.s.i a s.s.T.T.T.T.",
"T.T.T.T.U f K L  . .z.z.x.z./ f           O $.V.A.N.! f f f m m d f c.v.b.b.Z.Z.A.N.b s p b s.s.` W f / /.).{.F.f 8 Y.U.$X$X$X$X",
"T.T.T.T.P f _ _ | | ....o...f w             O.+.V.M.s w a a a a q r c.v.n.n.m.m.B.m.u 8 W ~ a.a.r 8 q a ~./.].`.~ P T.T.$X$X$X$X",
"T.T.T.T.f f m ! ( ( } [ ! s     = - , 5 9 9     ! ! 9 9 f f ! f O O a f s s f f m s     I.I.2 2         f ! m m K.I.T.T.$X$X$X$X",
"T.T.T.T.~ U f E / / [ ] ! f     > 4 4 9 q q     i a < < a a f a     w i w w w w i q X & T.T.3 1 X X X X s m d U T.T.T.T.$X$X$X$X",
"T.T.T.T.#X Xf f f f f f I.I.    -.:.:.-.e 6         o o O O O O < < < < q 9 o o   O G.L.T.T.P.P.XXXXXXXX#X#X#X#X$X$X$X$XT.T.T.T.",
"T.T.T.T.$X$X^ U m m m ^ T.T.& $ -.:.:.-.0 6 O X     X @       O < 9 < < 9 9 $ .   X T.T.T.T.T.T.$X$X$X$X$X$X$X$X$X$X$X$XT.T.T.T.",
"T.T.T.T.$X$X#X#XI.I.I.I.T.T.L.G.  . .       L.L.X   ;.;.4 , < < < < < < 5 0 y.u.. X L.T.T.T.T.T.$X$X$X$X$X$X$X$X$X$X$X$XT.T.T.T.",
"T.T.T.T.$X$X$X$XT.T.T.T.T.T.T.T.& X X X X & T.T.X   ;.:.4 5 9 9 < < < < 5 0 d.d.. X L.T.T.T.T.T.$X$X$X$X$X$X$X$X$X$X$X$XT.T.T.T.",
"T.T.T.T.$X$X$X$X$X$X$X$XT.T.T.T.L.L.L.L.L.L.T.L.X   : > < < < < 9 9 < < 6 q ~ M   X L.T.T.T.T.T.$X$X$X$X$X$X$X$XT.T.T.T.T.T.T.T.",
"T.T.T.T.$X$X$X$X$X$X$X$XT.T.T.T.T.T.T.T.T.T.T.L.X   = - < 4 < < < < < < 9 q W R   X L.T.T.T.T.T.$X$X$X$X$X$X$X$XT.T.T.T.T.T.T.T.",
"T.T.T.T.$X$X$X$X$X$X$X$XT.T.T.T.T.T.T.T.T.T.T.L.X   ; < 9 9 9 <     < 9 9 q / !   X L.T.T.T.T.T.$X$X$X$X$X$X$X$XT.T.T.T.T.T.T.T.",
"T.T.T.T.$X$X$X$X$X$X$X$XT.T.T.T.T.T.T.T.T.T.T.L.X   ; ; < < < < X X < 9 < 9 ! f   X L.T.T.T.T.T.$X$X$X$X$X$X$X$XT.T.T.T.T.T.T.T.",
"T.T.T.T.$X$X$X$X$X$X$X$XT.T.T.T.T.T.T.T.T.T.T.L.O             O L.L.X             O XX$X$X$X$X$XT.T.T.T.T.T.T.T.T.T.T.T.T.T.T.T.",
"T.T.T.T.$X$X$X$X$X$X$X$XT.T.T.T.T.T.T.T.T.T.T.L.O             O T.T.X             O XX$X$X$X$X$XT.T.T.T.T.T.T.T.T.T.T.T.T.T.T.T.",
"T.T.T.T.$X$X$X$X$X$X$X$XT.T.T.T.T.T.T.T.T.T.T.L.    - < :.;.  O T.T.    5 0 d.y.. O XX$X$X$X$X$XT.T.T.T.T.T.T.T.T.T.T.T.T.T.T.T.",
"T.T.T.T.$X$X$X$X$X$X$X$XT.T.T.T.T.T.T.T.T.T.T.L.> O - < :.;.  O T.T.& O 5 0 d.y.. O XX$X$X$X$X$XT.T.T.T.T.T.T.T.T.T.T.T.T.T.T.T.",
"T.T.T.T.$X$X$X$X$X$X$X$XT.T.T.T.T.T.T.T.$X$X$X$XXX|.    . .     L.T.L.G.    . .     XX$XT.T.T.T.T.T.T.T.T.T.T.T.T.T.T.T.T.T.T.T.",
"T.T.T.T.$X$X$X$X$X$X$X$XT.T.T.T.T.T.T.T.$X$X$X$X$X$X> O O O O > L.T.T.T.> O O O O > +X$XT.T.T.T.T.T.T.T.T.T.T.T.T.T.T.T.T.T.T.T.",
"T.T.T.T.$X$X$X$X$X$X$X$XT.T.T.T.T.T.T.T.$X$X$X$X$X$X$X$X$X$X$X$XT.T.T.T.$X$X$X$X$X$X$X$XT.T.T.T.T.T.T.T.T.T.T.T.T.T.T.T.T.T.T.T.",
"T.T.T.T.$X$X$X$X$X$X$X$XT.T.T.T.T.T.T.T.$X$X$X$X$X$X$X$X$X$X$X$XT.T.T.T.$X$X$X$X$X$X$X$XT.T.T.T.T.T.T.T.T.T.T.T.T.T.T.T.T.T.T.T.",
"T.T.T.T.$X$X$X$X$X$X$X$X$X$X$X$X$X$X$X$X$X$X$X$X$X$X$X$XT.T.T.T.T.T.T.T.T.T.T.T.T.T.T.T.T.T.T.T.T.T.T.T.T.T.T.T.T.T.T.T.T.T.T.T.",
"T.T.T.T.$X$X$X$X$X$X$X$X$X$X$X$X$X$X$X$X$X$X$X$X$X$X$X$XT.T.T.T.T.T.T.T.T.T.T.T.T.T.T.T.T.T.T.T.T.T.T.T.T.T.T.T.T.T.T.T.T.T.T.T.",
"T.T.T.T.$X$X$X$X$X$X$X$X$X$X$X$X$X$X$X$X$X$X$X$X$X$X$X$XT.T.T.T.T.T.T.T.T.T.T.T.T.T.T.T.T.T.T.T.T.T.T.T.T.T.T.T.T.T.T.T.T.T.T.T.",
"T.T.T.T.$X$X$X$X$X$X$X$X$X$X$X$X$X$X$X$X$X$X$X$X$X$X$X$XT.T.T.T.T.T.T.T.T.T.T.T.T.T.T.T.T.T.T.T.T.T.T.T.T.T.T.T.T.T.T.T.T.T.T.T."
};
