/* XPM */
static char *a18124065be54d0af936c019d0e61de3tZJaTVA5NSmYS9Qw[] = {
/* columns rows colors chars-per-pixel */
"64 64 4 1 ",
"  c #150D37",
". c #4D1852",
"X c #863945",
"o c #9F5856",
/* pixels */
"....XXXXXXXXXXXX....XXXXoooooooo....XXXXXXXXXXXX....XXXXXXXXXXXX",
"....XXXXXXXXXXXX....XXXXoooooooo....XXXXXXXXXXXX....XXXXXXXXXXXX",
"....XXXXXXXXXXXX....XXXXoooooooo....XXXXXXXXXXXX....XXXXXXXXXXXX",
"....XXXXXXXXXXXX....XXXXoooooooo....XXXXXXXXXXXX....XXXXXXXXXXXX",
"....XXXXXXXXXXXX....XXXXXXXXoooo....XXXXXXXXXXXX....XXXXXXXXXXXX",
"....XXXXXXXXXXXX....XXXXXXXXoooo....XXXXXXXXXXXX....XXXXXXXXXXXX",
"....XXXXXXXXXXXX....XXXXXXXXoooo....XXXXXXXXXXXX....XXXXXXXXXXXX",
"....XXXXXXXXXXXX....XXXXXXXXoooo....XXXXXXXXXXXX....XXXXXXXXXXXX",
"....XXXXXXXXXXXX....XXXXXXXXXXXX....XXXXXXXXXXXX....XXXXXXXXXXXX",
"....XXXXXXXXXXXX....XXXXXXXXXXXX....XXXXXXXXXXXX....XXXXXXXXXXXX",
"....XXXXXXXXXXXX....XXXXXXXXXXXX....XXXXXXXXXXXX....XXXXXXXXXXXX",
"....XXXXXXXXXXXX....XXXXXXXXXXXX....XXXXXXXXXXXX....XXXXXXXXXXXX",
"....................            ....        ........            ",
"....................            ....        ........            ",
"....................            ....        ........            ",
"....................            ....        ........            ",
"XXXXXXXX....XXXXXXXXXXXX    XXXXXXXXXXXX    XXXXoooooooo    XXXX",
"XXXXXXXX....XXXXXXXXXXXX    XXXXXXXXXXXX    XXXXoooooooo    XXXX",
"XXXXXXXX....XXXXXXXXXXXX    XXXXXXXXXXXX    XXXXoooooooo    XXXX",
"XXXXXXXX....XXXXXXXXXXXX    XXXXXXXXXXXX    XXXXoooooooo    XXXX",
"XXXXXXXX....XXXXXXXXXXXX....XXXXXXXXXXXX....XXXXXXXXoooo....XXXX",
"XXXXXXXX....XXXXXXXXXXXX....XXXXXXXXXXXX....XXXXXXXXoooo....XXXX",
"XXXXXXXX....XXXXXXXXXXXX....XXXXXXXXXXXX....XXXXXXXXoooo....XXXX",
"XXXXXXXX....XXXXXXXXXXXX....XXXXXXXXXXXX....XXXXXXXXoooo....XXXX",
"XXXXXXXX    XXXXXXXXXXXX    XXXXXXXXXXXX    XXXXXXXXXXXX....XXXX",
"XXXXXXXX    XXXXXXXXXXXX    XXXXXXXXXXXX    XXXXXXXXXXXX....XXXX",
"XXXXXXXX    XXXXXXXXXXXX    XXXXXXXXXXXX    XXXXXXXXXXXX....XXXX",
"XXXXXXXX    XXXXXXXXXXXX    XXXXXXXXXXXX    XXXXXXXXXXXX....XXXX",
"....            ........        ....            ................",
"....            ........        ....            ................",
"....            ........        ....            ................",
"....            ........        ....            ................",
"....XXXXoooooooo....XXXXXXXXXXXX....XXXXXXXXXXXX....XXXXXXXXXXXX",
"....XXXXoooooooo....XXXXXXXXXXXX....XXXXXXXXXXXX....XXXXXXXXXXXX",
"....XXXXoooooooo....XXXXXXXXXXXX....XXXXXXXXXXXX....XXXXXXXXXXXX",
"....XXXXoooooooo....XXXXXXXXXXXX....XXXXXXXXXXXX....XXXXXXXXXXXX",
"....XXXXXXXXoooo....XXXXXXXXXXXX....XXXXXXXXXXXX....XXXXXXXXXXXX",
"....XXXXXXXXoooo....XXXXXXXXXXXX....XXXXXXXXXXXX....XXXXXXXXXXXX",
"....XXXXXXXXoooo....XXXXXXXXXXXX....XXXXXXXXXXXX....XXXXXXXXXXXX",
"....XXXXXXXXoooo....XXXXXXXXXXXX....XXXXXXXXXXXX....XXXXXXXXXXXX",
"....XXXXXXXXXXXX....XXXXXXXXXXXX....XXXXXXXXXXXX....XXXXXXXXXXXX",
"....XXXXXXXXXXXX....XXXXXXXXXXXX....XXXXXXXXXXXX....XXXXXXXXXXXX",
"....XXXXXXXXXXXX....XXXXXXXXXXXX....XXXXXXXXXXXX....XXXXXXXXXXXX",
"....XXXXXXXXXXXX....XXXXXXXXXXXX....XXXXXXXXXXXX....XXXXXXXXXXXX",
"....................            ....................            ",
"....................            ....................            ",
"....................            ....................            ",
"....................            ....................            ",
"XXXXXXXX....XXXXXXXXXXXX    XXXXXXXXXXXX....XXXXoooooooo    XXXX",
"XXXXXXXX....XXXXXXXXXXXX    XXXXXXXXXXXX....XXXXoooooooo    XXXX",
"XXXXXXXX....XXXXXXXXXXXX    XXXXXXXXXXXX....XXXXoooooooo    XXXX",
"XXXXXXXX....XXXXXXXXXXXX    XXXXXXXXXXXX....XXXXoooooooo    XXXX",
"XXXXXXXX....XXXXXXXXXXXX....XXXXXXXXXXXX....XXXXXXXXoooo....XXXX",
"XXXXXXXX....XXXXXXXXXXXX....XXXXXXXXXXXX....XXXXXXXXoooo....XXXX",
"XXXXXXXX....XXXXXXXXXXXX....XXXXXXXXXXXX....XXXXXXXXoooo....XXXX",
"XXXXXXXX....XXXXXXXXXXXX....XXXXXXXXXXXX....XXXXXXXXoooo....XXXX",
"XXXXXXXX    XXXXXXXXXXXX    XXXXXXXXXXXX    XXXXXXXXXXXX....XXXX",
"XXXXXXXX    XXXXXXXXXXXX    XXXXXXXXXXXX    XXXXXXXXXXXX....XXXX",
"XXXXXXXX    XXXXXXXXXXXX    XXXXXXXXXXXX    XXXXXXXXXXXX....XXXX",
"XXXXXXXX    XXXXXXXXXXXX    XXXXXXXXXXXX    XXXXXXXXXXXX....XXXX",
"....            ........        ....            ................",
"....            ........        ....            ................",
"....            ........        ....            ................",
"....            ........        ....            ................"
};
